HIERARCHY
ROOT mixamorig:Hips
{
	OFFSET 0.000000 103.991501 0.000000
	CHANNELS 6 Xposition Yposition Zposition Xrotation Yrotation Zrotation
	JOINT mixamorig:Spine
	{
		OFFSET 0.000000 10.181602 0.131500
		CHANNELS 3 Xrotation Yrotation Zrotation
		JOINT mixamorig:Spine1
		{
			OFFSET 0.000000 10.083504 -1.000800
			CHANNELS 3 Xrotation Yrotation Zrotation
			JOINT mixamorig:Spine2
			{
				OFFSET 0.000000 9.100006 -1.373400
				CHANNELS 3 Xrotation Yrotation Zrotation
				JOINT mixamorig:Neck
				{
					OFFSET 0.000000 16.671707 -2.516200
					CHANNELS 3 Xrotation Yrotation Zrotation
					JOINT mixamorig:Head
					{
						OFFSET 0.000000 9.617905 1.685000
						CHANNELS 3 Xrotation Yrotation Zrotation
						JOINT mixamorig:HeadTop_End
						{
							OFFSET 0.000000 17.815201 2.585000
							CHANNELS 3 Xrotation Yrotation Zrotation
							End Site
							{
								OFFSET 0.000000 13.794495 0.000000
							}
						}
						JOINT mixamorig:LeftEye
						{
							OFFSET 3.067600 6.409500 9.283600
							CHANNELS 3 Xrotation Yrotation Zrotation
							End Site
							{
								OFFSET 0.000000 13.794495 0.000000
							}
						}
						JOINT mixamorig:RightEye
						{
							OFFSET -3.067600 6.409500 9.283500
							CHANNELS 3 Xrotation Yrotation Zrotation
							End Site
							{
								OFFSET 0.000000 13.794495 0.000000
							}
						}
					}
				}
				JOINT mixamorig:LeftShoulder
				{
					OFFSET 4.570400 10.945999 -2.628000
					CHANNELS 3 Xrotation Yrotation Zrotation
					JOINT mixamorig:LeftArm
					{
						OFFSET 10.592400 -0.524597 -2.232100
						CHANNELS 3 Xrotation Yrotation Zrotation
						JOINT mixamorig:LeftForeArm
						{
							OFFSET 27.841499 0.000000 0.000000
							CHANNELS 3 Xrotation Yrotation Zrotation
							JOINT mixamorig:LeftHand
							{
								OFFSET 28.328800 0.000000 0.000000
								CHANNELS 3 Xrotation Yrotation Zrotation
								JOINT mixamorig:LeftHandThumb1
								{
									OFFSET 2.466103 -1.576218 2.681689
									CHANNELS 3 Xrotation Yrotation Zrotation
									JOINT mixamorig:LeftHandThumb2
									{
										OFFSET 3.229782 -1.864716 1.864716
										CHANNELS 3 Xrotation Yrotation Zrotation
										JOINT mixamorig:LeftHandThumb3
										{
											OFFSET 2.652611 -1.531494 1.531488
											CHANNELS 3 Xrotation Yrotation Zrotation
											JOINT mixamorig:LeftHandThumb4
											{
												OFFSET 1.954605 -1.128494 1.128493
												CHANNELS 3 Xrotation Yrotation Zrotation
												End Site
												{
													OFFSET -0.000404 2.523392 0.000683
												}
											}
										}
									}
								}
								JOINT mixamorig:LeftHandIndex1
								{
									OFFSET 9.109299 -0.518112 2.259867
									CHANNELS 3 Xrotation Yrotation Zrotation
									JOINT mixamorig:LeftHandIndex2
									{
										OFFSET 3.676399 0.000000 0.000000
										CHANNELS 3 Xrotation Yrotation Zrotation
										JOINT mixamorig:LeftHandIndex3
										{
											OFFSET 2.883102 0.000000 0.000000
											CHANNELS 3 Xrotation Yrotation Zrotation
											JOINT mixamorig:LeftHandIndex4
											{
												OFFSET 2.392700 0.000000 0.000000
												CHANNELS 3 Xrotation Yrotation Zrotation
												End Site
												{
													OFFSET 0.000000 2.392700 0.001080
												}
											}
										}
									}
								}
								JOINT mixamorig:LeftHandMiddle1
								{
									OFFSET 9.533401 0.000000 0.000000
									CHANNELS 3 Xrotation Yrotation Zrotation
									JOINT mixamorig:LeftHandMiddle2
									{
										OFFSET 3.698196 0.000000 0.000000
										CHANNELS 3 Xrotation Yrotation Zrotation
										JOINT mixamorig:LeftHandMiddle3
										{
											OFFSET 2.950897 0.000000 0.000000
											CHANNELS 3 Xrotation Yrotation Zrotation
											JOINT mixamorig:LeftHandMiddle4
											{
												OFFSET 2.833900 0.000000 0.000000
												CHANNELS 3 Xrotation Yrotation Zrotation
												End Site
												{
													OFFSET 0.000000 2.833893 0.001278
												}
											}
										}
									}
								}
								JOINT mixamorig:LeftHandRing1
								{
									OFFSET 9.104500 -0.043060 -1.865119
									CHANNELS 3 Xrotation Yrotation Zrotation
									JOINT mixamorig:LeftHandRing2
									{
										OFFSET 3.153999 0.000000 0.000000
										CHANNELS 3 Xrotation Yrotation Zrotation
										JOINT mixamorig:LeftHandRing3
										{
											OFFSET 2.937698 0.000000 0.000000
											CHANNELS 3 Xrotation Yrotation Zrotation
											JOINT mixamorig:LeftHandRing4
											{
												OFFSET 2.647499 0.000000 0.000000
												CHANNELS 3 Xrotation Yrotation Zrotation
												End Site
												{
													OFFSET 0.000000 2.647507 0.001195
												}
											}
										}
									}
								}
								JOINT mixamorig:LeftHandPinky1
								{
									OFFSET 8.077797 -0.486984 -3.806321
									CHANNELS 3 Xrotation Yrotation Zrotation
									JOINT mixamorig:LeftHandPinky2
									{
										OFFSET 3.599998 0.000000 0.000000
										CHANNELS 3 Xrotation Yrotation Zrotation
										JOINT mixamorig:LeftHandPinky3
										{
											OFFSET 2.114197 0.000000 0.000000
											CHANNELS 3 Xrotation Yrotation Zrotation
											JOINT mixamorig:LeftHandPinky4
											{
												OFFSET 1.975700 0.000000 0.000000
												CHANNELS 3 Xrotation Yrotation Zrotation
												End Site
												{
													OFFSET 0.000000 1.975693 0.000892
												}
											}
										}
									}
								}
							}
						}
					}
				}
				JOINT mixamorig:RightShoulder
				{
					OFFSET -4.570000 10.946198 -2.628000
					CHANNELS 3 Xrotation Yrotation Zrotation
					JOINT mixamorig:RightArm
					{
						OFFSET -10.592800 -0.524796 -2.232100
						CHANNELS 3 Xrotation Yrotation Zrotation
						JOINT mixamorig:RightForeArm
						{
							OFFSET -27.841499 0.000000 0.000000
							CHANNELS 3 Xrotation Yrotation Zrotation
							JOINT mixamorig:RightHand
							{
								OFFSET -28.328800 0.000000 0.000000
								CHANNELS 3 Xrotation Yrotation Zrotation
								JOINT mixamorig:RightHandPinky1
								{
									OFFSET -8.076698 -0.486725 -3.806227
									CHANNELS 3 Xrotation Yrotation Zrotation
									JOINT mixamorig:RightHandPinky2
									{
										OFFSET -3.599998 0.000000 0.000000
										CHANNELS 3 Xrotation Yrotation Zrotation
										JOINT mixamorig:RightHandPinky3
										{
											OFFSET -2.114197 0.000000 0.000000
											CHANNELS 3 Xrotation Yrotation Zrotation
											JOINT mixamorig:RightHandPinky4
											{
												OFFSET -1.975700 0.000000 0.000000
												CHANNELS 3 Xrotation Yrotation Zrotation
												End Site
												{
													OFFSET 0.000000 1.975693 0.000919
												}
											}
										}
									}
								}
								JOINT mixamorig:RightHandRing1
								{
									OFFSET -9.103600 -0.043030 -1.865120
									CHANNELS 3 Xrotation Yrotation Zrotation
									JOINT mixamorig:RightHandRing2
									{
										OFFSET -3.153999 0.000000 0.000000
										CHANNELS 3 Xrotation Yrotation Zrotation
										JOINT mixamorig:RightHandRing3
										{
											OFFSET -2.937698 0.000000 0.000000
											CHANNELS 3 Xrotation Yrotation Zrotation
											JOINT mixamorig:RightHandRing4
											{
												OFFSET -2.647499 0.000000 0.000000
												CHANNELS 3 Xrotation Yrotation Zrotation
												End Site
												{
													OFFSET 0.000000 2.647507 0.001231
												}
											}
										}
									}
								}
								JOINT mixamorig:RightHandMiddle1
								{
									OFFSET -9.532501 0.000000 0.000000
									CHANNELS 3 Xrotation Yrotation Zrotation
									JOINT mixamorig:RightHandMiddle2
									{
										OFFSET -3.698196 0.000000 0.000000
										CHANNELS 3 Xrotation Yrotation Zrotation
										JOINT mixamorig:RightHandMiddle3
										{
											OFFSET -2.950897 0.000000 0.000000
											CHANNELS 3 Xrotation Yrotation Zrotation
											JOINT mixamorig:RightHandMiddle4
											{
												OFFSET -2.833900 0.000000 0.000000
												CHANNELS 3 Xrotation Yrotation Zrotation
												End Site
												{
													OFFSET 0.000000 2.833893 0.001318
												}
											}
										}
									}
								}
								JOINT mixamorig:RightHandIndex1
								{
									OFFSET -9.108299 -0.517853 2.259859
									CHANNELS 3 Xrotation Yrotation Zrotation
									JOINT mixamorig:RightHandIndex2
									{
										OFFSET -3.676399 0.000000 0.000000
										CHANNELS 3 Xrotation Yrotation Zrotation
										JOINT mixamorig:RightHandIndex3
										{
											OFFSET -2.883102 0.000000 0.000000
											CHANNELS 3 Xrotation Yrotation Zrotation
											JOINT mixamorig:RightHandIndex4
											{
												OFFSET -2.392700 0.000000 0.000000
												CHANNELS 3 Xrotation Yrotation Zrotation
												End Site
												{
													OFFSET 0.000000 2.392700 0.001113
												}
											}
										}
									}
								}
								JOINT mixamorig:RightHandThumb1
								{
									OFFSET -2.464798 -1.573944 2.681868
									CHANNELS 3 Xrotation Yrotation Zrotation
									JOINT mixamorig:RightHandThumb2
									{
										OFFSET -3.229782 -1.864716 1.864716
										CHANNELS 3 Xrotation Yrotation Zrotation
										JOINT mixamorig:RightHandThumb3
										{
											OFFSET -2.652542 -1.531448 1.531448
											CHANNELS 3 Xrotation Yrotation Zrotation
											JOINT mixamorig:RightHandThumb4
											{
												OFFSET -1.954605 -1.128494 1.128493
												CHANNELS 3 Xrotation Yrotation Zrotation
												End Site
												{
													OFFSET 0.000412 2.523392 0.000704
												}
											}
										}
									}
								}
							}
						}
					}
				}
			}
		}
	}
	JOINT mixamorig:LeftUpLeg
	{
		OFFSET 8.207800 -6.751701 -1.599600
		CHANNELS 3 Xrotation Yrotation Zrotation
		JOINT mixamorig:LeftLeg
		{
			OFFSET 0.000000 -44.370499 0.284600
			CHANNELS 3 Xrotation Yrotation Zrotation
			JOINT mixamorig:LeftFoot
			{
				OFFSET 0.000000 -44.427898 -2.982200
				CHANNELS 3 Xrotation Yrotation Zrotation
				JOINT mixamorig:LeftToeBase
				{
					OFFSET 0.000000 -8.728700 10.710600
					CHANNELS 3 Xrotation Yrotation Zrotation
					JOINT mixamorig:LeftToe_End
					{
						OFFSET 0.000000 -0.000700 9.278099
						CHANNELS 3 Xrotation Yrotation Zrotation
						End Site
						{
							OFFSET 0.000000 9.278100 0.000000
						}
					}
				}
			}
		}
	}
	JOINT mixamorig:RightUpLeg
	{
		OFFSET -8.207800 -6.751701 -1.599600
		CHANNELS 3 Xrotation Yrotation Zrotation
		JOINT mixamorig:RightLeg
		{
			OFFSET 0.000000 -44.370499 0.286200
			CHANNELS 3 Xrotation Yrotation Zrotation
			JOINT mixamorig:RightFoot
			{
				OFFSET 0.000000 -44.427700 -2.983800
				CHANNELS 3 Xrotation Yrotation Zrotation
				JOINT mixamorig:RightToeBase
				{
					OFFSET 0.000000 -8.728700 10.710600
					CHANNELS 3 Xrotation Yrotation Zrotation
					JOINT mixamorig:RightToe_End
					{
						OFFSET 0.000000 -0.000700 9.278100
						CHANNELS 3 Xrotation Yrotation Zrotation
						End Site
						{
							OFFSET 0.000000 9.278100 0.000000
						}
					}
				}
			}
		}
	}
}
MOTION
Frames: 4
Frame Time: 0.033333
0.090278 102.385422 1.616363 1.940062 1.935550 -0.231217 6.176192 -1.270787 0.116214 2.498169 -2.419469 1.232353 2.471490 -2.375262 1.342052 -0.476781 2.129173 -0.237485 -3.193112 4.531021 -1.876712 0.000000 0.000000 -0.000000 0.000000 0.000000 -0.000000 0.000000 0.000000 -0.000000 0.352374 -9.169221 -14.380743 9.011962 -24.442276 -57.554575 -0.000001 -11.061375 0.000008 3.271983 3.566761 -10.594335 5.264576 3.579097 10.848976 6.475021 8.366994 6.368025 2.011422 -7.323825 21.364138 0.000002 0.000003 -0.000000 -2.233899 -4.155353 -17.702600 0.202665 1.529143 -15.099433 0.202684 1.529120 -15.099474 -0.000004 0.000000 -0.000000 0.434916 4.486708 -26.650239 0.126189 1.210599 -11.900560 0.171688 1.409328 -13.891084 -0.000002 -0.000003 -0.000004 1.633475 6.797654 -27.448932 0.330794 1.942474 -19.326908 0.401509 2.133311 -21.315508 0.000000 0.000002 -0.000001 2.784623 8.693857 -34.053155 0.277937 1.784750 -17.702052 0.277944 1.784754 -17.702032 0.000001 -0.000004 -0.000001 0.552462 4.135211 15.717228 2.585516 28.440238 49.448705 -0.000001 23.198758 0.000022 -1.370138 0.937410 5.904117 -0.266796 -3.440084 29.323180 0.569768 -2.234015 28.612205 0.178106 -1.276920 15.879971 0.000000 0.000000 -0.000002 -0.268992 -2.585361 24.354252 1.505984 -3.430902 47.387477 0.374058 -1.830403 23.097599 -0.000001 0.000001 0.000000 -1.114251 -0.327547 22.216076 0.858160 -2.695813 35.310090 0.296095 -1.635658 20.519971 0.000000 0.000001 0.000000 -2.604767 4.001034 20.792735 0.394940 -1.878593 23.742678 0.077859 -0.848918 10.480022 0.000000 -0.000001 -0.000001 12.604589 -3.092098 -3.819374 4.958755 -19.016338 -8.084331 -16.138082 -1.566972 -12.127651 0.000001 -0.000002 -0.000001 -28.621558 9.106612 4.875883 57.047943 -4.639654 -0.541529 0.218358 0.064223 -1.518538 -8.204111 0.000004 -0.000001 0.000002 0.000000 -0.000000 -13.126667 -7.407901 1.737984 19.885295 2.773808 -3.690364 -9.456702 -0.007450 0.255700 -4.971787 0.000000 0.000000 -0.000000 0.000000 0.000000 
0.223311 103.133644 6.782416 2.536881 1.365409 -0.019421 5.777630 -0.301449 -0.160591 2.234220 -1.840796 0.676535 2.217203 -1.797398 0.769948 -0.432899 1.886103 -0.364865 -2.834826 3.316964 -1.875546 -0.000000 0.000000 0.000000 -0.000000 0.000000 0.000000 -0.000000 0.000000 0.000000 0.400751 -8.194771 -14.189461 11.473793 -20.864425 -59.378106 -0.000007 -11.041844 0.000001 2.941749 2.341894 -13.706594 5.264577 3.579097 10.848977 5.762013 7.923270 6.757435 2.014413 -6.999245 21.321619 0.000001 0.000002 0.000001 -2.284154 -4.876520 -16.721329 0.203016 1.530382 -15.112116 0.203015 1.530380 -15.112128 -0.000001 -0.000000 0.000001 0.339269 4.273672 -25.878405 0.126266 1.210975 -11.904364 0.171780 1.409701 -13.894819 0.000000 0.000001 -0.000000 1.568871 6.750503 -26.402499 0.330802 1.942489 -19.327086 0.401511 2.133319 -21.315555 -0.000001 0.000005 0.000002 2.839644 8.872515 -33.509834 0.278677 1.787052 -17.725760 0.278685 1.787067 -17.725750 0.000002 0.000001 0.000001 0.538062 4.449558 15.461690 2.369814 30.529723 47.477048 -0.000016 25.998980 0.000023 -1.104293 -1.868280 8.080240 -0.380756 -3.314772 29.553505 0.571889 -2.237902 28.666700 0.179233 -1.280890 15.930817 0.000000 0.000003 -0.000002 -0.323031 -2.485523 24.603567 1.508368 -3.433096 47.427416 0.375310 -1.833357 23.136989 0.000001 0.000002 0.000001 -1.181381 -0.248066 22.670822 0.860138 -2.698597 35.352004 0.297269 -1.638824 20.561480 0.000001 0.000000 0.000000 -2.665565 4.004931 21.171174 0.395117 -1.878986 23.748008 0.077923 -0.849346 10.485367 0.000000 -0.000000 0.000001 12.604590 -3.092094 -3.819376 4.823369 -18.766512 -8.140572 -16.139269 -1.560867 -12.127866 0.000001 0.000003 0.000000 -30.617826 9.098351 3.854199 43.092142 -2.324745 -2.033096 0.049101 0.167796 -3.187507 -6.394408 0.000004 -0.000002 -0.000001 -0.000001 -0.000000 -7.239774 -8.108953 2.157622 13.749469 4.315109 -4.346178 -10.373492 -0.075607 0.765501 -4.671633 -0.000001 -0.000000 0.000000 -0.000000 -0.000000 
0.424074 103.116135 11.902226 3.182702 0.733586 -0.097621 5.334832 0.693805 0.229940 2.013599 -1.243921 -0.033867 1.997118 -1.211860 0.044632 -0.524806 1.552777 -0.248575 -2.830587 2.299517 -1.873583 -0.000000 -0.000000 0.000000 -0.000000 -0.000000 0.000000 -0.000000 -0.000000 0.000000 0.440412 -7.293197 -14.075041 13.705672 -17.314058 -61.273224 -0.000002 -10.936218 0.000008 2.713693 0.651313 -15.244014 5.264573 3.579096 10.848978 5.812075 7.755807 6.707102 2.014068 -7.001313 21.310728 -0.000001 -0.000001 -0.000004 -2.239356 -4.807164 -16.567249 0.203373 1.531693 -15.125369 0.203372 1.531700 -15.125384 -0.000002 0.000000 0.000001 0.331682 4.256160 -25.815231 0.126623 1.212716 -11.921664 0.172214 1.411412 -13.912149 0.000002 0.000001 0.000002 1.569600 6.756304 -26.346077 0.330577 1.941876 -19.320746 0.401276 2.132720 -21.309167 0.000001 0.000002 0.000001 2.776061 8.760203 -33.489838 0.278319 1.785944 -17.714297 0.278326 1.785945 -17.714290 0.000002 -0.000003 -0.000001 0.529703 4.787505 14.711476 2.276080 32.199216 45.124300 -0.000002 30.315132 -0.000004 -0.064047 -4.741370 10.367567 -0.888427 -2.762717 30.350567 0.572549 -2.239119 28.683591 0.179247 -1.280911 15.930924 0.000001 0.000001 -0.000002 -0.460851 -2.268744 25.531042 1.511511 -3.435977 47.479917 0.376956 -1.837179 23.188053 0.000001 -0.000001 0.000001 -1.266510 -0.214773 23.565362 0.861797 -2.700940 35.387395 0.298274 -1.641472 20.596437 -0.000000 0.000000 -0.000001 -2.879414 3.994420 22.533388 0.392491 -1.873046 23.668281 0.076766 -0.842965 10.405709 -0.000002 0.000001 0.000004 12.604591 -3.092096 -3.819372 5.224064 -17.723783 -7.877006 -16.153222 -1.489538 -12.130510 0.000002 0.000000 -0.000001 -29.683323 8.576907 2.598352 23.572994 0.856972 -2.515734 2.766812 0.127780 -4.235658 -5.376336 0.000005 -0.000000 0.000000 0.000001 0.000000 -3.138336 -9.663975 2.149027 10.876325 6.432147 -4.085886 -12.185984 0.035145 -0.049192 -4.486931 -0.000001 -0.000001 -0.000000 -0.000000 0.000000 
0.716380 102.150650 17.149399 3.629423 -0.437011 -1.408665 4.781443 2.287750 2.351937 1.950787 -0.652175 -1.037333 1.912895 -0.645048 -0.974626 -0.628593 1.108976 0.338400 -3.206091 1.506934 -2.195020 0.000000 0.000000 0.000000 0.000000 0.000000 0.000000 0.000000 0.000000 0.000000 0.463815 -6.804708 -13.921268 15.604904 -13.907886 -63.346002 0.000002 -10.450617 0.000003 1.835900 -0.898094 -15.552435 5.264572 3.579094 10.848976 6.090491 7.324388 6.566352 2.012339 -7.063338 21.284087 -0.000001 0.000003 0.000001 -2.188829 -4.727856 -16.391836 0.203362 1.531677 -15.125150 0.203362 1.531665 -15.125160 -0.000001 -0.000001 -0.000002 0.339158 4.268343 -25.699405 0.126294 1.211125 -11.905741 0.171821 1.409836 -13.896232 -0.000001 -0.000003 -0.000002 1.585276 6.789007 -26.328825 0.329986 1.940171 -19.303107 0.400614 2.131018 -21.291382 0.000001 -0.000002 -0.000000 2.741136 8.694956 -33.502853 0.277147 1.782254 -17.676501 0.277149 1.782261 -17.676494 0.000001 0.000002 -0.000001 0.523037 5.234983 13.873701 1.906236 33.561511 42.363640 0.000014 33.208947 -0.000010 0.720428 -4.683044 11.991778 -1.478310 -2.141484 31.098473 0.573390 -2.240621 28.704963 0.179243 -1.280920 15.931109 0.000001 -0.000000 0.000001 -0.605911 -2.048658 26.361380 1.513160 -3.437480 47.507514 0.377788 -1.839138 23.214092 -0.000002 0.000002 -0.000000 -1.315424 -0.215343 24.165346 0.862630 -2.702096 35.404948 0.298772 -1.642813 20.613777 -0.000002 0.000002 -0.000000 -3.096420 4.007136 23.817220 0.393135 -1.874511 23.687972 0.077043 -0.844538 10.425364 -0.000001 0.000002 -0.000001 12.604592 -3.092095 -3.819375 5.548344 -15.996921 -7.639427 -16.171048 -1.398124 -12.133782 -0.000002 0.000000 0.000001 -32.035759 6.927586 3.096193 11.311212 3.133409 -1.121031 3.025678 0.145430 -5.915276 -5.861092 -0.000002 -0.000001 -0.000000 -0.000001 0.000000 -1.270190 -11.462456 2.430259 13.064448 6.120805 -3.241169 -15.487766 3.000039 0.039917 -4.544554 -0.000001 -0.000000 0.000000 0.000000 -0.000000 
